<?xml version="1.0" encoding="utf-8"?><!-- Uploaded to: SVG Repo, www.svgrepo.com, Generator: SVG Repo Mixer Tools -->
<svg width="800px" height="800px" viewBox="0 0 128 128" xmlns="http://www.w3.org/2000/svg" xmlns:xlink="http://www.w3.org/1999/xlink" aria-hidden="true" role="img" class="iconify iconify--noto" preserveAspectRatio="xMidYMid meet"><linearGradient id="IconifyId17ecdb2904d178eab9932" x1="117.29" x2="33.833" y1="19.903" y2="83.278" gradientUnits="userSpaceOnUse"><stop stop-color="#FFB300" offset="0"></stop><stop stop-color="#FFCA28" offset=".401"></stop></linearGradient><path d="M20.27 122.41c-1.11 0-2.16-.34-3.2-1.05c-.73-.5-1.16-1.2-1.21-1.98c-.08-1.28.87-2.19 1.06-2.36l.11-.1l.13-.08s4.45-2.58 5.6-3.23c.86-.49 2.53-1.78 4.47-3.26c2.47-1.9 5.55-4.26 8.53-6.21c3.5-2.29 4.91-3.98 6.31-7.54c.88-2.23.18-12.29-.5-22.03c-.74-10.7-1.58-22.81-.86-30.16c-.16-1.12-.34-2.16-.51-3.15c-.84-4.83-1.5-8.64 1.36-13.44a9.342 9.342 0 0 1 4.36-3.84C61.56 17.27 88.71 7.84 96.13 7.03c2.17-.24 4.08-.35 5.82-.35c6.54 0 15.51 1.45 17.83 14.02c.52 2.79 1.27 9.91-2.85 15.7c-2.6 3.66-6.55 5.91-11.74 6.7c-5.36 1.15-15.66 1.65-25.61 2.14c-5.2.25-10.15.5-13.92.82c6.48 14.6.27 26.75-3.9 34.91l-.48.95c-2.21 4.34-4.64 14.03-3.13 21.96c.07.38.18.82.29 1.3c.79 3.38 2.27 9.67-3.25 12.08c-1.85.8-3.48 1.15-5.46 1.15c-.78 0-1.56-.05-2.39-.1c-.54-.04-1.11-.07-1.73-.1c-.78-.03-1.47-.09-2.11-.14c-.73-.06-1.36-.11-1.96-.11c-.95 0-2.06.11-3.77.93c-.56.27-1.08.53-1.57.79c-1.53.79-2.98 1.54-5.01 1.9c-.3.05-.62.08-.95.08c-1.67 0-3.4-.69-4.54-1.25c-.52.55-1.29 1.11-2.4 1.43l-.39.11c-.82.21-1.68.46-2.64.46z" fill="url(#IconifyId17ecdb2904d178eab9932)"></path><path d="M101.95 8.18c8.46 0 14.52 2.88 16.35 12.79c1.4 7.59-.54 18.69-13.34 20.65c-8.79 1.88-31.57 2.06-41.58 3.16c7.92 15.35.94 27.84-3.44 36.46c-2.19 4.3-4.91 14.28-3.26 22.92c.57 2.97 2.97 9.52-2.09 11.72c-1.87.81-3.34 1.02-4.86 1.02c-1.24 0-2.51-.14-4.06-.2c-1.66-.07-2.91-.26-4.14-.26c-1.33 0-2.64.22-4.42 1.07c-2.31 1.1-3.78 2.13-6.19 2.56c-.22.04-.45.06-.68.06c-2.3 0-4.99-1.72-4.99-1.72s-.54 1.44-2.35 1.95c-.93.26-1.76.55-2.63.55c-.73 0-1.49-.2-2.35-.79c-1.26-.86 0-1.98 0-1.98s4.45-2.57 5.59-3.23c2.1-1.2 7.73-6.03 13.08-9.52c3.75-2.45 5.37-4.38 6.89-8.24c2.01-5.13-2.7-38.47-1.25-52.77c-.91-6.48-2.53-10.48.62-15.79a7.9 7.9 0 0 1 3.67-3.23C63.06 18.25 89.4 9.28 96.3 8.52c1.98-.21 3.87-.34 5.65-.34m0-3c-1.8 0-3.75.12-5.98.36c-7.74.85-34.77 10.24-50.64 17.06c-2.12.91-3.86 2.45-5.06 4.45c-3.14 5.28-2.4 9.54-1.55 14.47c.16.94.33 1.91.48 2.93c-.7 7.5.14 19.56.88 30.23c.57 8.17 1.34 19.37.6 21.38c-1.28 3.25-2.51 4.72-5.73 6.83c-3.03 1.98-6.13 4.36-8.62 6.27c-1.82 1.4-3.53 2.71-4.3 3.15c-1.15.66-5.61 3.24-5.61 3.24l-.26.15l-.23.2c-.4.35-1.68 1.66-1.56 3.58c.08 1.25.74 2.36 1.87 3.12c1.3.88 2.62 1.31 4.04 1.31c1.17 0 2.18-.29 3.07-.55l.38-.11c.87-.25 1.62-.64 2.24-1.1c1.21.51 2.75.99 4.29.99c.41 0 .82-.03 1.21-.1c2.25-.4 3.87-1.23 5.43-2.04c.48-.25.97-.5 1.52-.77c1.36-.65 2.23-.78 3.13-.78c.54 0 1.14.05 1.84.11c.64.05 1.35.11 2.17.15c.6.02 1.16.06 1.69.1c.85.06 1.66.11 2.49.11c2.17 0 4.04-.39 6.06-1.27c6.68-2.91 4.88-10.54 4.11-13.8c-.11-.46-.21-.88-.28-1.24c-1.44-7.58.88-16.84 2.99-20.99l.48-.95c4.12-8.06 10.17-19.89 4.73-34.25c3.41-.24 7.53-.45 11.82-.66c9.96-.49 20.27-.99 25.85-2.17c5.56-.87 9.82-3.33 12.65-7.3c4.45-6.26 3.65-13.86 3.1-16.84c-1.89-10.28-8.2-15.27-19.3-15.27z" fill="#EDA600"></path><path d="M58.75 47.73c-.73 2.29-1.39 4.48-1.95 6.67c-.54 2.19-1.02 4.35-1.25 6.54c-.32 2.18-.46 4.37-.47 6.59c-.07 2.25.16 4.47.18 6.9v.03c0 .05-.04.1-.11.1c-.04 0-.09-.03-.1-.07c-.77-2.23-1.44-4.48-1.67-6.8c-.33-2.31-.27-4.65 0-6.97c.31-2.31.92-4.6 1.78-6.79c.86-2.2 1.97-4.33 3.4-6.3a.1.1 0 0 1 .14-.03c.04.02.05.07.04.11l.01.02z" fill="#EDA600"></path><path d="M52.65 102.09c.41.93.88 2.69-.01 4.44c-1.43 2.11-3.23 2.4-4.16 2.37c-.28-.01-.43-.3-.26-.51c.51-.61 1.46-1.83 2.26-3.21c.72-1.24 1.24-2.4 1.52-3.1c.13-.27.54-.26.65.01z" fill="#EDA600"></path><path d="M48.99 40.03c1.5-1.37 2.79-4.11 3.07-4.95c.27-.84 1.02-4.1.84-5.86l-.02-.09c-.01-.06.03-.12.1-.12c.03-.01.06 0 .08.02c1.1.75 1.67 1.97 1.85 3.15c.2 1.2.08 2.43-.27 3.59c-.38 1.15-1.04 2.26-2.01 3.12c-.95.87-2.29 1.39-3.63 1.4c-.06 0-.12-.05-.12-.11c0-.03.02-.07.04-.09l.07-.06z" fill="#EDA600"></path></svg>